<svg xmlns="http://www.w3.org/2000/svg" width="92.63818" height="441.18652" viewBox="0 0 92.63818 441.18652"><title>sign</title><path d="M22.11084,61.79688A43.7624,43.7624,0,0,0,17.0083,64.8584a11.67157,11.67157,0,0,1-4.64893,1.81445c-.79346,0-.79346,0-5.66943-2.94824A12.37948,12.37948,0,0,0,2.49463,62.7041a5.82332,5.82332,0,0,1-1.13379-3.51562c0-.90723.11328-.90723.90723-1.24707.56689-.33984,1.36035-.90723,2.60791-1.7002,1.24707,1.92676,2.49463,2.834,3.855,2.834,2.041,0,6.80322-1.24707,13.15332-3.40137.45313-.11328,3.62842-.90723,8.39063-2.1543a63.10706,63.10706,0,0,0,8.05029-2.49512,17.47831,17.47831,0,0,1,4.876-1.01953,23.66836,23.66836,0,0,0,4.76221-.90723L68.93994,47.623c4.64844-.33984,4.64844-.33984,6.00977-1.47363a5.38228,5.38228,0,0,1,2.7207-1.13379c2.49512,0,7.48438,2.49414,10.31836,4.98926a5.26344,5.26344,0,0,1,1.13379,3.06055,1.73439,1.73439,0,0,1-1.7002,1.92773,17.29472,17.29472,0,0,1-4.64941-1.02051,58.03919,58.03919,0,0,0-11.792-1.7002c-1.02051,0-1.02051,0-18.25586,1.13379L41.16016,55.2207c-5.89648.67969-6.80322,1.02051-17.0083,5.89551Zm13.71973-39.3457v2.94824c0,3.1748-1.13379,5.78223-2.38086,5.78223A3.14163,3.14163,0,0,1,31.522,30.04785c-.56689-.90723-.56689-.90723-1.36035-5.21582a1.68317,1.68317,0,0,0-1.47412-1.36035c-.68066,0-.68066,0-6.917,4.19531-3.51465,2.26758-4.87549,3.06152-5.21582,3.06152-.79346,0-3.1748-1.36035-5.3291-2.835-1.24707-.90723-1.5874-1.7002-1.5874-3.96875a3.345,3.345,0,0,1,.79346-1.81348l1.36084.33984a4.93929,4.93929,0,0,0,2.49463.68066l4.87549-1.47461a11.96,11.96,0,0,0,2.1543-.56641,3.052,3.052,0,0,0,.90723-.34082c2.60791-1.13379,4.53564-1.92773,7.25684-2.834a41.81913,41.81913,0,0,0-.90723-8.61816c-.22656-1.13379-.45312-1.36035-3.7417-3.62793l-.11328-.4541c2.60791-1.58691,2.94824-1.7002,3.96875-1.7002,1.36035,0,1.92725.22656,4.30859,1.58691,3.40186,1.92773,3.40186,1.92773,3.40186,2.6084,0,.11328,0,.11328-.90723,3.62793v1.13379a7.05888,7.05888,0,0,1-.11328,1.81445v.68066a3.00986,3.00986,0,0,0,.33984,1.13379c1.13379-.34082,1.92773-.56738,2.26807-.68066l2.38086-.90723a13.60172,13.60172,0,0,1,4.08154-.90723c5.55664-.90625,5.55664-.90625,7.25684-.90625a14.602,14.602,0,0,1,2.835.22656l.11328-1.36133.4541-3.85449a11.0563,11.0563,0,0,0,.11328-1.81445,7.5284,7.5284,0,0,0-.11328-1.47363L51.59131,1.70117C53.29248.34082,54.19971,0,55.56006,0c3.62891,0,7.82422,2.6084,7.82422,4.7627,0,.56641,0,.56641-1.47461,2.041-.45312,1.58691-1.13379,3.96875-1.58691,5.21582l.33984.22656a6.73672,6.73672,0,0,1,1.24707-.11328,26.06749,26.06749,0,0,1,3.06152-.45312c1.02051-.11426,1.70117-.22754,1.92773-.22754.22656-.11328.90723-.33984,1.70117-.67969l-.79395-1.36133a7.41853,7.41853,0,0,0,1.47363.34082l4.876.67969c1.47363.22754,3.40137,1.92773,3.40137,3.06152a3.73887,3.73887,0,0,1-.79395,2.1543c-.67969.56738-.67969.56738-5.3291.56738l-3.40137.33984-2.26758.11328-7.03027.90723a3.18163,3.18163,0,0,1-.68066-.11328c-1.81348,4.98926-6.916,9.86523-9.52441,9.29785l-.33984-.33984c2.1543-1.47461,4.42188-5.44238,5.44238-9.18457a7.13216,7.13216,0,0,1-1.47363-.33984c-.79395-.11426-1.36133-.22754-1.47461-.22754-1.02051-.45312-1.92773-.90723-2.834-1.36035a3.49671,3.49671,0,0,0-1.47461-.33984c-.56641,0-.56641,0-2.26758,1.02051a21.305,21.305,0,0,0-2.83447,1.24707,23.62618,23.62618,0,0,0-2.835,1.47363,27.04147,27.04147,0,0,1-2.72119,1.47461ZM16.21484,85.6084l-.11377-.56738a2.54477,2.54477,0,0,1,.68066-1.58691c.33984-.34082.33984-.34082,2.49414-.56738.34033-.11328.34033-.11328,5.10254-4.082,2.72168-2.26758,2.72168-2.26758,6.46338-7.93652,1.814-2.72168,3.7417-6.57715,3.7417-7.59766V60.77637c-.11328-.33984-.79395-1.47461-1.814-3.28809,3.7417,1.7002,6.9165,4.64844,6.9165,6.23633,0,1.92773-2.26758,7.14355-4.42236,9.97754-.79346,1.13379-1.36035,1.92773-1.5874,2.26855a9.83076,9.83076,0,0,0-.56689,1.36035,7.14,7.14,0,0,1,1.36084-.33984l4.19531-1.47461c.11328,0,1.36084-.33984,3.1748-.68066,1.02051-.22656,3.62793-.90625,6.46289-1.81348a21.40745,21.40745,0,0,1,4.19531-1.13379l2.72168-.22754c2.834-.67969,2.834-.67969,2.834-1.36035,0-.45312-.11328-.56641-1.13379-1.24707a5.68666,5.68666,0,0,1-.90723-.68066,18.89543,18.89543,0,0,0-1.81348-1.7002l-2.041-1.70117a7.7095,7.7095,0,0,1-1.70117-2.1543,26.34472,26.34472,0,0,1,7.9375,2.38086,87.40117,87.40117,0,0,1,8.27734,4.082c.90723.56738,1.47363,1.13379,5.21582,4.7627l2.94824,3.40137c4.19531,5.10254,5.3291,6.917,5.3291,9.07129,0,.67969-.11328.90723-.79395,2.041-.90723,1.36035-.90723,1.36035-1.47363,1.36035a7.53,7.53,0,0,1-2.15527-.56738,15.63926,15.63926,0,0,0-2.94727-.793,2.83176,2.83176,0,0,1-1.92773-.90723c-.34082-.22656-.79395-.68066-1.58789-1.24707l.22656-.22754v-.45312c1.02051-.56738,1.36133-1.02051,1.36133-1.81445,0-1.81445-1.36133-3.85547-5.55664-7.93652,0,0-1.13379-.79395-3.28809-2.49512a3.39759,3.39759,0,0,0-1.24707.33984c-2.1543.56738-4.30859,1.248-6.57617,1.92773l-4.082,1.02051c-.79395.22754-2.041.68066-7.14355,2.72168l-6.68994,3.28809-6.12256,2.835a14.14533,14.14533,0,0,0-2.835,1.7002c-3.51514,2.94824-3.7417,3.06152-4.19531,3.06152-1.02051,0-2.835-1.13379-6.9165-4.08105ZM35.83057,42.52051c-2.94775-.33984-5.10205-1.81348-7.02979-4.53516h.34033v-.33984a9.27,9.27,0,0,0,1.5874.11328c1.36035,0,1.36035,0,5.55566-1.13379l4.42236-1.02051c8.0498-2.94824,8.0498-2.94824,10.20508-2.94824A17.31466,17.31466,0,0,1,55.3335,34.0166c1.58691.68066,2.26758,1.24707,2.26758,2.041a5.504,5.504,0,0,1-.68066,1.92773c-1.7002.45313-2.041.45313-2.834.68066-.4541.11328-1.70117.56641-3.85547,1.36035l-3.40137.79395-2.041.793-1.70117.4541-9.29785,3.62793L31.522,46.376a16.18128,16.18128,0,0,1-2.49463.90723,2.568,2.568,0,0,1-1.13379.33984l-.11328-.11328Z" style="fill:#AA0000"/><path d="M0,199.2207A3.32489,3.32489,0,0,1,1.13428,198.54c1.70068-.90625,3.40137-1.81348,5.21582-2.60742,6.12256-3.28809,21.54346-18.48242,27.55322-27.09961,6.68994-9.97852,7.4834-11.33887,8.731-14.28711a8.42818,8.42818,0,0,0-2.041.33984l-2.72168.90723-2.49414,1.02051-5.44287,2.1543c-1.47412.56738-2.94824,1.24707-4.30859,1.92773-1.13379.4541-2.041.90723-3.1748,1.47461l-5.44287,3.06055-1.5874.68066a9.27917,9.27917,0,0,1-1.24707,1.02051,1.95878,1.95878,0,0,1-1.36084.68066c-.68018,0-.68018,0-3.51514-1.36133-5.78271-1.36035-5.78271-1.36035-6.34961-1.92676a3.84169,3.84169,0,0,1-1.36084-2.94824c0-1.58789.45361-2.1543,4.7627-5.3291,1.24707,3.06152,2.1543,3.74121,4.53516,3.74121,1.70117,0,1.70117,0,6.917-2.26758l19.72949-7.82422,2.83447-.67969a8.82112,8.82112,0,0,0,.45361-.79395l.22656-1.58691a26.98541,26.98541,0,0,0,.56738-6.00977c0-.90723-.22705-1.36133-.79395-1.36133-.68018,0-.68018,0-7.71045,3.85547a5.0924,5.0924,0,0,1-2.38086.68066c-1.02051,0-2.72168-1.13379-5.10254-3.51562-4.082-3.62793-4.082-3.62793-4.082-4.64844,0-.90723.22656-1.24707,2.041-3.62891,2.041,2.6084,3.51514,3.74219,4.87549,3.74219.68066,0,.79395,0,4.76221-.79395l5.10254-1.92773c2.835-.67969,2.835-.67969,3.06152-1.02051a3.16675,3.16675,0,0,0,.90723-2.49414c0-4.30859-.45361-7.59668-1.36084-8.61719a21.07717,21.07717,0,0,0-4.76221-3.96875c.90723-1.70117,1.70068-2.26758,2.94824-2.26758,5.32861,0,12.35889,3.06152,12.35889,5.3291a5.791,5.791,0,0,1-.45312,1.24707,7.327,7.327,0,0,0-1.70117,1.13379,21.10215,21.10215,0,0,0-.45312,4.64941l-.22754,1.47363a9.35576,9.35576,0,0,0,.22754,1.13379l1.24707-.33984c.79395-.22656,1.47363-.4541,2.38086-.79395a12.26966,12.26966,0,0,1,2.1543-.45312c.33984,0,.79395.11328,1.70117.22656l1.36035.11328a5.73914,5.73914,0,0,0,.90723-1.02051c.22656-.45312.56738-.90723.90723-1.47363,1.7002-2.38184,1.7002-2.38184,2.38086-4.64941a2.52575,2.52575,0,0,0-.79395-.79395l-.90723-.22656c-.22656,0-.45312-.11328-.90625-.45312,1.58691-1.92773,2.38086-2.49512,3.85449-2.49512,5.10254,0,9.86523,2.1543,9.86523,4.42188a1.5822,1.5822,0,0,1-.33984,1.02051c-.22754.11426-.79395.56738-1.81445,1.13477-.68066.45313-1.92773,2.041-3.51562,4.64844l-10.6582,17.00781a9.123,9.123,0,0,0,1.02051.22754,6.573,6.573,0,0,0,2.1543-.4541,83.613,83.613,0,0,1,8.61719-1.24707c2.94824-.33984,3.28906-.33984,4.7627-.45312h2.041l2.38086-1.02051a6.61132,6.61132,0,0,1,2.38184-.34082,15.76356,15.76356,0,0,1,3.96777.4541l1.36133.33984c.56641.11328.67969.11328.90723.33984,0,0,.90723.4541,2.1543,1.02051,1.36035.56738,2.49414,1.81445,2.49414,2.835,0,1.47461-1.58691,2.72168-3.40137,2.72168-.4541,0-.4541,0-12.24609-1.36133a3.88124,3.88124,0,0,0-1.24707-.11328c-1.70117,0-1.70117,0-8.84473,1.02051l-5.3291.68066c-5.78223,1.13379-6.34961,1.24707-7.4834,1.92773-1.47363,1.02051-1.47363,1.02051-5.44238,7.14355-1.248,1.81348-2.6084,3.74121-4.30859,5.78223a3.17137,3.17137,0,0,0-.56738,1.02051c0,.11328.45361,1.47461,1.02051,3.40234a23.73688,23.73688,0,0,1,.34033,3.40137,37.01793,37.01793,0,0,0,.45361,4.19531,51.96053,51.96053,0,0,1,.33984,6.00977v7.37012a9.2971,9.2971,0,0,0,.22656,2.94824,7.737,7.737,0,0,1,.11328,1.36035c0,.90723,0,.90723.22754,1.36035,3.1748-3.40137,6.23633-9.52441,5.78223-11.792l-2.26758-2.26758-3.06152-1.92773c.68066-.11328,1.36035-.34082,1.36035-.22656l1.13379-.11426a9.75025,9.75025,0,0,1,2.94824-.56641c3.62891,0,7.71094,1.92773,7.71094,3.62793a14.8051,14.8051,0,0,1-.4541,2.38184l-1.36035,1.58691L53.519,190.94336c-6.123,6.123-6.123,6.123-6.123,7.9375a14.219,14.219,0,0,0,.22656,1.7002,8.04393,8.04393,0,0,0,1.58789.11328,20.60469,20.60469,0,0,0,2.26758-.11328c2.38086-.11328,4.42188-.11328,4.7627-.11328l1.24707-.11328h.56641c.34082,0,.34082,0,1.13477.33984h.11328a4.45494,4.45494,0,0,0,.67969-.22656,20.49815,20.49815,0,0,0,.56738-6.00977c0-7.25684,0-12.13184.11328-14.17285l.22656-6.80371v-1.13379a7.10691,7.10691,0,0,0-.90723-3.96875,2.9573,2.9573,0,0,0-1.24707-.33984,21.00611,21.00611,0,0,0-3.28809.68066,19.38473,19.38473,0,0,1-5.55566,1.02051,7.31766,7.31766,0,0,1-2.041-.4541,8.171,8.171,0,0,0-2.15527-.45312v-.22656c5.2168-3.06152,5.89648-3.40234,11.1123-4.7627a2.80809,2.80809,0,0,1,2.6084-1.24707c1.36035,0,1.92773.11328,5.10254,1.36035.45313.33984.90723.68066,1.02051.79395l1.7002,1.02051.4541.45313.793.68066c1.02051.79395,1.36133,1.36035,1.36133,2.1543s-.22656,1.13379-1.02051,1.81445l-1.36133.56641a3.0996,3.0996,0,0,0-.90625,2.49512,52.78679,52.78679,0,0,0-.11328,5.44238l-.11426,6.34961.34082,9.29785-.11328,7.9375.11328,1.81348c-1.13379,6.35059-1.13379,6.35059-2.38184,6.35059-1.58691,0-1.58691,0-3.51465-2.26855a10.14391,10.14391,0,0,1-1.02051-1.13379,6.74171,6.74171,0,0,1-.90723-1.24707c-.67969-1.70117-.90723-1.92773-2.1543-1.92773a11.24187,11.24187,0,0,0-3.1748.4541,18.11469,18.11469,0,0,1-3.06152.56641,16.85874,16.85874,0,0,0-3.06152.34082,4.81185,4.81185,0,0,0-1.36035.56641l-.11328,1.36035c0,1.70117-.22754,2.26855-1.24707,2.26855-.79395,0-1.58789-.56738-2.6084-2.041h-.11328c-2.041-2.6084-3.06152-4.64941-2.94775-6.123a9.69621,9.69621,0,0,1,.68018-2.26758c.22656-.68066.45361-1.36133.34033-1.47461l.11328-14.51367c.79346-8.39062.79346-8.39062.79346-10.31836,0-3.62793,0-3.85547-.33984-5.44238a11.15555,11.15555,0,0,1-.79395,1.13379l-4.76221,7.03027c-2.041,3.06152-9.18457,10.31836-13.37988,13.71973-9.63818,7.82422-13.60645,9.97852-17.915,9.97852A28.01935,28.01935,0,0,1,0,199.44727Zm47.05615-54.19922c-.22656.67969-.4541,1.81445-.68066,2.835a2.43624,2.43624,0,0,0,1.13379-.22754c3.74219-4.53516,7.14355-9.86426,8.16406-12.8125-.45312.11328-.79395.22656-.90723.22656-1.02051.4541-2.1543.79395-3.28809,1.24707-1.02051.34082-1.70117.56738-2.835.90723a3.97147,3.97147,0,0,0-1.13379,2.94824Z" style="fill:#AA0000"/><path d="M20.52344,271.78711c-1.36084,3.74121-1.36084,3.74121-2.041,4.19531a5.771,5.771,0,0,1-1.5874.45313c-1.13379,0-3.40186-1.24707-5.66943-3.1748-1.13379-.90723-1.13379-.90723-3.62842-3.74121-2.1543-1.81445-2.60791-2.6084-2.60791-4.64941,0-1.02051.34033-1.81445,1.814-3.74219a10.198,10.198,0,0,0,1.24756-2.49414c.56689.56738,1.02051.90723,1.02051,1.02051a14.84082,14.84082,0,0,1,.90723,1.92773c.79346,1.47363,4.64893,3.85547,6.46289,3.85547a22.77252,22.77252,0,0,0,6.46338-1.81445,29.39949,29.39949,0,0,1,3.855-1.47461c-.34033.56738-.68018.90723-.79395,1.13379-2.1543,2.94824-3.51465,4.876-3.62842,5.10254-.33984.68066-.68018,1.248-.90674,1.81445Zm10.43164,48.9834c-4.87549,1.92773-5.66943,2.1543-8.61768,2.72168-.68018.22656-6.68945.67969-7.14307.67969a5.74458,5.74458,0,0,1-1.92773-.56641c.56689-.4541.90723-.79395.90723-.79395,3.1748-1.24707,6.23633-2.38086,9.29785-3.62891A77.4911,77.4911,0,0,0,52.272,296.73242h.22656l.68066-1.02051,5.44238-6.80371,2.49414-3.85547c3.62891-5.3291,4.7627-7.71,4.7627-9.86426a30.13933,30.13933,0,0,0-.33984-3.28809v-.11328a14.60218,14.60218,0,0,1,.90723-2.94824c.22656-.4541.45313-.56738,3.28809-3.28809,3.85449-3.06152,3.85449-3.06152,4.30859-3.85547a6.13843,6.13843,0,0,0,1.02051-3.1748c0-1.47461-.4541-2.6084-1.81445-4.876-2.835-.67969-3.51465-1.13379-6.23633-3.74121a8.76708,8.76708,0,0,0,1.36035-.4541,12.67654,12.67654,0,0,1,5.66992-1.02051c1.47363,0,1.47363,0,4.98926,1.81445L84.02,252.51074l1.47461,1.70117c2.72168,2.60742,2.835,2.94824,2.835,6.916a4.08461,4.08461,0,0,1-.56738,2.1543,1.84019,1.84019,0,0,1-1.02051.4541c-.90723,0-2.835-.90723-4.7627-2.26758a9.67537,9.67537,0,0,0-3.06055-.4541c-1.47461,0-2.26855.56738-5.21582,3.51563a5.38967,5.38967,0,0,0-2.26855,4.76172c0,1.47461,0,1.47461,3.85547,6.46387a1.92327,1.92327,0,0,1,.45313,1.47363c0,1.58691,0,1.58691-2.834,4.082A10.51377,10.51377,0,0,0,71.7749,283.126c-5.89648,10.77148-14.96777,20.86328-26.98633,30.16113-3.51514,2.7207-6.123,4.42188-7.59717,4.98926ZM32.88281,269.292l1.24707.56738,1.70068.56641c.11377,0,.45361.22754,1.02051.4541,1.70117,1.02051,2.26807,1.13379,4.7627,1.36035,1.36035-1.24707,1.5874-1.70117,1.5874-2.26758l-.11377-29.36719c-.11328-5.33008-.45312-6.123-3.51465-7.71094l-.90723-.67969-.90723-.22754a2.71192,2.71192,0,0,1-1.24707-.793c2.26758-3.17578,3.40137-3.96875,6.123-3.96875a4.75353,4.75353,0,0,1,2.7207.67969c2.26758.68066,2.26758.68066,4.98926,2.72168s3.40137,2.72168,3.40137,4.082c0,.90723-.45312,1.24707-1.81348,1.81445-1.47461,2.7207-1.81445,4.875-2.38184,13.94629-.11328,1.70117-.11328,2.835-.11328,3.1748l-.45312,2.835.45313,21.54395a24.21151,24.21151,0,0,1-1.47363,4.875,2.27864,2.27864,0,0,1-2.38184,1.36133c-1.13379,0-1.24707,0-2.04053-.79395-.11328-.22656-.33984-.33984-.56689-.56738l-1.02051-1.02051v-.22656h-.22656a20.77366,20.77366,0,0,1-1.36084-2.041,14.71131,14.71131,0,0,0-1.814-2.7207,7.05275,7.05275,0,0,0-1.13379-.90723,7.68057,7.68057,0,0,1-2.6084-3.28809,13.887,13.887,0,0,0-1.92725-2.835Z" style="fill:#AA0000"/><path d="M7.37061,419.86914c-1.92773-.56641-2.94824-.793-3.17529-.90625-.90674-.4541-1.36035-1.13477-2.041-3.28906.22705-.793.45361-1.36035.45361-1.47363.11377-.11328.22705-.33984.45361-.45312l.45361-.34082c1.24707-1.02051,2.49463-2.041,3.85547-3.06152.11328-.11328.79346-.56641,1.5874-1.13379.45313,3.06152.79346,3.74219,2.041,3.74219.56689,0,.56689,0,4.08154-1.13379.34033-.11328,1.36084-.56738,2.94824-1.248,1.02051-.45312,2.835-1.24707,5.3291-2.26758l18.14209-7.71,6.9165-2.38086c.33984-4.19629.33984-4.42285.33984-5.55664l-.33984-6.917v-1.58691a5.57578,5.57578,0,0,1-1.36035.33984c-1.47461.4541-3.06152.90723-4.53564,1.24707L36.85107,387.667l-2.041.4541a10.98756,10.98756,0,0,0-3.1748,1.58691l-1.5874-.67969a5.7047,5.7047,0,0,0-1.02051-.90723A11.91508,11.91508,0,0,0,27.667,386.9873a5.31527,5.31527,0,0,1-1.92773-3.85547,5.16442,5.16442,0,0,1,1.02051-3.06152,4.75194,4.75194,0,0,1,.56689.22656l.68018-.33984,2.15479-1.13379,4.53516-2.94824,2.1543-1.24707,2.94824-2.26758c7.14355-4.64941,7.59668-5.10254,7.82324-6.46387h-.45312a2.6977,2.6977,0,0,0-1.36035.4541c-1.13379.45313-1.81445.79395-2.041.90723l-8.731,2.834c-1.81445.68066-3.7417,1.36133-5.66943,2.041a17.31332,17.31332,0,0,1-1.81445.34082,17.6813,17.6813,0,0,0-1.5874.793,6.8631,6.8631,0,0,1-1.24707.56738c-.79395-.33984-.90723-.45312-1.36084-1.47363a3.1246,3.1246,0,0,1-1.24707-.90723c-.68018-.68066-1.24707-1.47461-1.81445-2.1543a7.16587,7.16587,0,0,0-1.02051-.68066,2.74792,2.74792,0,0,1-.45312-1.47363c0-1.47461.33984-2.6084.90674-2.94824.22705-.22656.22705-.22656,1.70117-.34082,3.28809-1.13379,4.64893-1.92676,6.23633-3.85449l2.60791-2.72168,1.47412-1.81445c2.72119-3.06152,4.19531-5.66895,4.19531-7.25586a2.4429,2.4429,0,0,0-1.47412-1.81445c-1.36084-.79395-1.36084-.79395-1.70068-1.36133a8.61135,8.61135,0,0,0-1.13428-1.58691c1.13428-.11328,1.81445-.22656,2.1543-.22656l2.72168-.68066a1.43875,1.43875,0,0,1,.68018-.11328c1.24707,0,1.24707,0,4.98926,2.1543,3.061,1.81445,4.19482,3.06152,4.19482,4.53516,0,1.02051,0,1.02051-4.42187,4.98926l-3.7417,4.30859a39.1937,39.1937,0,0,1-5.44238,4.876c-.68066.56641-1.36084,1.13379-1.92773,1.58691l2.72119-.45312L55.8999,359.207l.90723-.56738,3.28809-1.13379.22754-.22656a5.03042,5.03042,0,0,1,1.02051-2.49414h.67969l.11328-.11328a12.2194,12.2194,0,0,1,1.81445.22656l2.1543.79395c4.19531,1.36035,4.30859,1.47363,4.30859,2.94727,0,1.36133-.56641,1.81445-3.40137,2.72168l-3.28809,1.36035-1.81445.56738-2.49414.79395-2.38184.67969-.90625.4541c-1.13477.56641-1.13477.56641-1.248.793-.22656.56738-1.36035,7.59766-1.36035,8.50488,0,.45313.11328,1.13379.22656,2.041a6.09092,6.09092,0,0,1,1.36133-.4541c.90625-.22656,1.47363-.33984,1.47363-.45312.11328.11328.56738-.4541.90723-1.02051a1.99452,1.99452,0,0,1,.68066-.11328,19.18666,19.18666,0,0,1,4.08105,1.36035,2.36233,2.36233,0,0,1,1.248,1.92773c0,1.13379-.34082,1.36035-5.10254,3.28809l-3.85547,1.13379c-.90723.68066-.90723.90723-.90723,5.55566l-.11328,1.58789.11328,5.21582c0,.11328-.11328.56738-.22656,1.24707l.45313.68066c.79395-.11328,1.248-.22656,1.36133-.22656,1.13379-.34082,2.1543-.68066,3.28809-.90723.22656-.11328.22656-.11328,7.37012-1.36133,2.38086-.45312,2.72168-.45312,7.14355-.56641,3.62793-.22656,4.42188-.56738,5.44238-2.49414a2.97457,2.97457,0,0,1,.79395-.11426c2.26758,0,8.05078,2.041,11.22559,3.96875a4.04211,4.04211,0,0,1,2.1543,3.1748c0,1.02051-.56738,1.47461-2.1543,1.81445l-1.81445.45313-7.82422-1.7002-1.36035-.11328H76.87744l-7.9375.90723-7.25684.56641-7.03027,1.81445c-.11328,0-.68066.22656-1.24707.33984v.56738l-.22656,3.1748V411.252l.11328,1.13379.90723,22.45117a4.41885,4.41885,0,0,1-.22754.68066,14.22427,14.22427,0,0,0-.22656,2.49414c-.11328,1.58691-.90723,2.26758-3.85449,3.1748-1.81445-1.58789-1.92773-2.041-2.6084-6.00977-1.13379-3.85547-1.13379-3.85547-1.13379-5.21582,0-2.835.22656-3.62793,1.70117-5.10254l.45313-20.52344-.11328-1.24707-1.24707.34082c-.56738.22656-.90723.33984-1.13379.45313l-1.36133.68066-1.47363.56641-4.082,1.81445-4.19531,1.81445L12.47266,421.91016l-.11328.11426a10.74534,10.74534,0,0,1-1.814-.34082ZM24.832,402.29395a3.87834,3.87834,0,0,0,1.92773-3.62793c0-2.041-.34033-2.6084-1.70068-3.1748-1.02051-.56738-1.70117-1.47461-3.40186-4.30859a5.63526,5.63526,0,0,1,2.1543-.4541c5.44287,0,10.772,3.85547,10.772,7.9375,0,.79395-.56689,1.36035-1.92773,2.1543-2.49414,1.24707-2.49414,1.24707-4.42187,1.36035H26.873Zm23.35791-25.28516c.11328-1.92773.11328-2.835.11328-3.62793a15.7912,15.7912,0,0,0-.11328-1.92773c-2.1543,1.24707-2.1543,1.24707-3.40137,1.92773-.56738.33984-1.70117.793-3.28857,1.58691a11.09255,11.09255,0,0,0-2.38086,1.36035c-1.13379,1.02051-2.26807,2.041-3.28857,3.06152-1.36035.90723-1.36035,1.02051-2.72119,2.835a15.54972,15.54972,0,0,0,4.082-.45312c.79395-.22754,3.1748-.90723,7.25635-2.1543l1.92773-.68066a7.224,7.224,0,0,0,1.70117-.68066Z" style="fill:#AA0000"/></svg>
