<?xml version="1.0" encoding="UTF-8"?>
<svg width="58px" height="43px" viewBox="0 0 58 43" version="1.1" xmlns="http://www.w3.org/2000/svg" xmlns:xlink="http://www.w3.org/1999/xlink">
    <g id="Page-1" stroke="none" stroke-width="1" fill="none" fill-rule="evenodd">
        <g id="logo_440" fill="#666666" fill-rule="nonzero">
            <path d="M35.274,15.058 L30.665,15.058 L30.665,9.206 L23.971,11.01 L23.971,15.058 L21.046,15.058 L21.046,20.074 L23.971,20.074 L23.971,28.741 C23.971,31.836 24.631,33.996 25.946,35.22 C27.259,36.446 28.953,37.056 31.018,37.056 C32.926,37.056 34.418,36.852 35.497,36.442 L35.452,31.294 C34.948,31.441 34.256,31.514 33.37,31.514 C32.409,31.514 31.718,31.224 31.297,30.645 C30.876,30.066 30.665,29.066 30.665,27.642 L30.665,20.074 L35.585,20.074 L35.585,20.073 L38.11,20.073 L38.11,36.573 L44.981,36.573 L44.981,20.072 L49.327,20.072 L49.327,15.056 L44.937,15.056 L44.937,13.956 C44.937,12.768 45.214,11.833 45.769,11.152 C46.322,10.47 47.108,10.128 48.129,10.128 C48.939,10.128 49.68,10.232 50.344,10.436 L50.566,5.2 C49.355,4.907 48.159,4.761 46.975,4.761 C45.336,4.761 43.809,5.132 42.399,5.873 C40.988,6.613 39.921,7.746 39.196,9.272 C38.472,10.797 38.11,12.461 38.11,14.266 L38.11,15.057 L35.274,15.057 L35.274,15.058 Z M58,42.58 L20.362,42.58 L0.787,17.438 L17.887,0.03 L58,0.03 L58,42.58 Z" id="Combined-Shape"></path>
        </g>
    </g>
</svg>